<svg width="592.821875px" height="75.8px" xmlns="http://www.w3.org/2000/svg" viewBox="-46.41093749999999 37.1 592.821875 75.8" style="background: none;" preserveAspectRatio="xMidYMid"><defs><filter id="editing-extrusion" x="-100%" y="-100%" width="300%" height="300%"><feFlood result="color1" flood-color="#0a0a0a"></feFlood><feConvolveMatrix order="8,8" divisor="1" kernelMatrix="1 0 0 0 0 0 0 0 0 1 0 0 0 0 0 0 0 0 1 0 0 0 0 0 0 0 0 1 0 0 0 0 0 0 0 0 1 0 0 0 0 0 0 0 0 1 0 0 0 0 0 0 0 0 1 0 0 0 0 0 0 0 0 1" in="SourceAlpha" result="extrude"></feConvolveMatrix><feComposite in="color1" in2="extrude" result="comp-extrude" operator="in"></feComposite><feOffset dx="4" dy="4" in="comp-extrude" result="offset-extrude"></feOffset><feMerge><feMergeNode in="offset-extrude"></feMergeNode><feMergeNode in="SourceGraphic"></feMergeNode></feMerge></filter></defs><g filter="url(#editing-extrusion)"><g transform="translate(40.50499105453491, 95.46500015258789)"><path d="M13.19-30.81L17.60-30.81L29.48 0L25.07 0L22.34-7.09L8.44-7.09L5.71 0L1.31 0L13.19-30.81ZM15.40-25.07L10.12-11.49L20.65-11.49L15.40-25.07ZM34.33-31.69L38.54-31.69L38.54 0L34.33 0L34.33-31.69ZM65.83-18.65L65.83-4.23L65.83-4.23Q65.83-3.35 65.50-2.58L65.50-2.58L65.50-2.58Q65.16-1.80 64.59-1.24L64.59-1.24L64.59-1.24Q64.02-0.67 63.25-0.33L63.25-0.33L63.25-0.33Q62.48 0 61.60 0L61.60 0L49.80 0L49.80 9.24L45.59 9.24L45.59-22.88L49.80-22.88L49.80-19.01L49.80-19.01Q49.87-19.83 50.23-20.53L50.23-20.53L50.23-20.53Q50.60-21.23 51.15-21.75L51.15-21.75L51.15-21.75Q51.71-22.28 52.45-22.58L52.45-22.58L52.45-22.58Q53.20-22.88 54.03-22.88L54.03-22.88L61.60-22.88L61.60-22.88Q62.48-22.88 63.25-22.55L63.25-22.55L63.25-22.55Q64.02-22.21 64.59-21.65L64.59-21.65L64.59-21.65Q65.16-21.08 65.50-20.30L65.50-20.30L65.50-20.30Q65.83-19.53 65.83-18.65L65.83-18.65ZM49.80-4.23L61.60-4.23L61.60-18.65L49.80-18.65L49.80-4.23ZM93.11-18.65L93.11 0L88.88 0L88.88-18.65L77.09-18.65L77.09 0L72.88 0L72.88-31.69L77.09-31.69L77.09-18.84L77.09-18.84Q77.13-19.68 77.47-20.42L77.47-20.42L77.47-20.42Q77.82-21.16 78.39-21.71L78.39-21.71L78.39-21.71Q78.96-22.26 79.71-22.57L79.71-22.57L79.71-22.57Q80.46-22.88 81.32-22.88L81.32-22.88L88.88-22.88L88.88-22.88Q89.76-22.88 90.54-22.55L90.54-22.55L90.54-22.55Q91.31-22.21 91.88-21.65L91.88-21.65L91.88-21.65Q92.45-21.08 92.78-20.30L92.78-20.30L92.78-20.30Q93.11-19.53 93.11-18.65L93.11-18.65ZM100.16-4.23L100.16-9.99L100.16-9.99Q100.16-10.87 100.49-11.63L100.49-11.63L100.49-11.63Q100.83-12.40 101.40-12.98L101.40-12.98L101.40-12.98Q101.96-13.56 102.74-13.89L102.74-13.89L102.74-13.89Q103.51-14.22 104.37-14.22L104.37-14.22L115.29-14.22L115.29-18.65L101.47-18.65L101.47-22.88L115.29-22.88L115.29-22.88Q116.17-22.88 116.94-22.55L116.94-22.55L116.94-22.55Q117.71-22.21 118.28-21.65L118.28-21.65L118.28-21.65Q118.85-21.08 119.18-20.30L119.18-20.30L119.18-20.30Q119.52-19.53 119.52-18.65L119.52-18.65L119.52 0L115.29 0L115.29-3.87L115.29-3.87Q115.22-3.07 114.86-2.36L114.86-2.36L114.86-2.36Q114.49-1.65 113.92-1.13L113.92-1.13L113.92-1.13Q113.35-0.60 112.62-0.30L112.62-0.30L112.62-0.30Q111.89 0 111.07 0L111.07 0L104.37 0L104.37 0Q103.51 0 102.74-0.33L102.74-0.33L102.74-0.33Q101.96-0.67 101.40-1.24L101.40-1.24L101.40-1.24Q100.83-1.80 100.49-2.58L100.49-2.58L100.49-2.58Q100.16-3.35 100.16-4.23L100.16-4.23ZM104.37-9.99L104.37-4.23L115.29-4.23L115.29-9.99L104.37-9.99ZM126.99-4.40L126.99-26.40L126.99-26.40Q126.99-27.31 127.34-28.11L127.34-28.11L127.34-28.11Q127.68-28.92 128.28-29.51L128.28-29.51L128.28-29.51Q128.88-30.10 129.69-30.45L129.69-30.45L129.69-30.45Q130.50-30.81 131.40-30.81L131.40-30.81L148.11-30.81L148.11-30.81Q149.02-30.81 149.82-30.45L149.82-30.45L149.82-30.45Q150.63-30.10 151.23-29.51L151.23-29.51L151.23-29.51Q151.83-28.92 152.17-28.11L152.17-28.11L152.17-28.11Q152.52-27.31 152.52-26.40L152.52-26.40L152.52-22.43L148.11-22.43L148.11-26.40L131.40-26.40L131.40-4.40L148.11-4.40L148.11-11.88L139.76-11.88L139.76-16.29L152.52-16.29L152.52-4.40L152.52-4.40Q152.52-3.50 152.17-2.70L152.17-2.70L152.17-2.70Q151.83-1.89 151.23-1.29L151.23-1.29L151.23-1.29Q150.63-0.69 149.82-0.34L149.82-0.34L149.82-0.34Q149.02 0 148.11 0L148.11 0L131.40 0L131.40 0Q130.50 0 129.69-0.34L129.69-0.34L129.69-0.34Q128.88-0.69 128.28-1.29L128.28-1.29L128.28-1.29Q127.68-1.89 127.34-2.70L127.34-2.70L127.34-2.70Q126.99-3.50 126.99-4.40L126.99-4.40ZM179.35-18.65L179.35-9.28L164.21-9.28L164.21-4.23L179.35-4.23L179.35 0L164.21 0L164.21 0Q163.35 0 162.57-0.33L162.57-0.33L162.57-0.33Q161.80-0.67 161.23-1.24L161.23-1.24L161.23-1.24Q160.66-1.80 160.33-2.58L160.33-2.58L160.33-2.58Q159.99-3.35 159.99-4.23L159.99-4.23L159.99-18.65L159.99-18.65Q159.99-19.53 160.33-20.30L160.33-20.30L160.33-20.30Q160.66-21.08 161.23-21.65L161.23-21.65L161.23-21.65Q161.80-22.21 162.57-22.55L162.57-22.55L162.57-22.55Q163.35-22.88 164.21-22.88L164.21-22.88L175.12-22.88L175.12-22.88Q176-22.88 176.77-22.55L176.77-22.55L176.77-22.55Q177.55-22.21 178.12-21.65L178.12-21.65L178.12-21.65Q178.69-21.08 179.02-20.30L179.02-20.30L179.02-20.30Q179.35-19.53 179.35-18.65L179.35-18.65ZM175.12-18.65L164.21-18.65L164.21-13.51L175.12-13.51L175.12-18.65ZM206.64-18.65L206.64 0L202.40 0L202.40-18.65L190.61-18.65L190.61 0L186.40 0L186.40-22.88L190.61-22.88L190.61-18.84L190.61-18.84Q190.65-19.68 191.00-20.42L191.00-20.42L191.00-20.42Q191.34-21.16 191.91-21.71L191.91-21.71L191.91-21.71Q192.48-22.26 193.23-22.57L193.23-22.57L193.23-22.57Q193.98-22.88 194.84-22.88L194.84-22.88L202.40-22.88L202.40-22.88Q203.29-22.88 204.06-22.55L204.06-22.55L204.06-22.55Q204.83-22.21 205.40-21.65L205.40-21.65L205.40-21.65Q205.97-21.08 206.30-20.30L206.30-20.30L206.30-20.30Q206.64-19.53 206.64-18.65L206.64-18.65ZM233.04-18.65L233.04-9.28L217.89-9.28L217.89-4.23L233.04-4.23L233.04 0L217.89 0L217.89 0Q217.04 0 216.26-0.33L216.26-0.33L216.26-0.33Q215.49-0.67 214.92-1.24L214.92-1.24L214.92-1.24Q214.35-1.80 214.02-2.58L214.02-2.58L214.02-2.58Q213.68-3.35 213.68-4.23L213.68-4.23L213.68-18.65L213.68-18.65Q213.68-19.53 214.02-20.30L214.02-20.30L214.02-20.30Q214.35-21.08 214.92-21.65L214.92-21.65L214.92-21.65Q215.49-22.21 216.26-22.55L216.26-22.55L216.26-22.55Q217.04-22.88 217.89-22.88L217.89-22.88L228.81-22.88L228.81-22.88Q229.69-22.88 230.46-22.55L230.46-22.55L230.46-22.55Q231.24-22.21 231.81-21.65L231.81-21.65L231.81-21.65Q232.38-21.08 232.71-20.30L232.71-20.30L232.71-20.30Q233.04-19.53 233.04-18.65L233.04-18.65ZM228.81-18.65L217.89-18.65L217.89-13.51L228.81-13.51L228.81-18.65ZM239.64-4.23L253.90-4.23L253.90-9.54L243.87-9.54L243.87-9.54Q242.99-9.54 242.21-9.87L242.21-9.87L242.21-9.87Q241.44-10.21 240.87-10.77L240.87-10.77L240.87-10.77Q240.30-11.34 239.97-12.12L239.97-12.12L239.97-12.12Q239.64-12.89 239.64-13.77L239.64-13.77L239.64-18.65L239.64-18.65Q239.64-19.53 239.97-20.30L239.97-20.30L239.97-20.30Q240.30-21.08 240.87-21.65L240.87-21.65L240.87-21.65Q241.44-22.21 242.21-22.55L242.21-22.55L242.21-22.55Q242.99-22.88 243.87-22.88L243.87-22.88L257.25-22.88L257.25-18.65L243.87-18.65L243.87-13.77L253.90-13.77L253.90-13.77Q254.78-13.77 255.55-13.44L255.55-13.44L255.55-13.44Q256.31-13.11 256.89-12.54L256.89-12.54L256.89-12.54Q257.47-11.97 257.80-11.19L257.80-11.19L257.80-11.19Q258.13-10.42 258.13-9.54L258.13-9.54L258.13-4.23L258.13-4.23Q258.13-3.35 257.80-2.58L257.80-2.58L257.80-2.58Q257.47-1.80 256.89-1.24L256.89-1.24L256.89-1.24Q256.31-0.67 255.55-0.33L255.55-0.33L255.55-0.33Q254.78 0 253.90 0L253.90 0L239.64 0L239.64-4.23ZM264.95-22.88L269.18-22.88L269.18 0L264.95 0L264.95-22.88ZM264.73-27.29L264.73-31.69L269.39-31.69L269.39-27.29L264.73-27.29ZM275.99-4.23L290.25-4.23L290.25-9.54L280.22-9.54L280.22-9.54Q279.34-9.54 278.57-9.87L278.57-9.87L278.57-9.87Q277.79-10.21 277.22-10.77L277.22-10.77L277.22-10.77Q276.65-11.34 276.32-12.12L276.32-12.12L276.32-12.12Q275.99-12.89 275.99-13.77L275.99-13.77L275.99-18.65L275.99-18.65Q275.99-19.53 276.32-20.30L276.32-20.30L276.32-20.30Q276.65-21.08 277.22-21.65L277.22-21.65L277.22-21.65Q277.79-22.21 278.57-22.55L278.57-22.55L278.57-22.55Q279.34-22.88 280.22-22.88L280.22-22.88L293.61-22.88L293.61-18.65L280.22-18.65L280.22-13.77L290.25-13.77L290.25-13.77Q291.13-13.77 291.90-13.44L291.90-13.44L291.90-13.44Q292.66-13.11 293.24-12.54L293.24-12.54L293.24-12.54Q293.82-11.97 294.15-11.19L294.15-11.19L294.15-11.19Q294.49-10.42 294.49-9.54L294.49-9.54L294.49-4.23L294.49-4.23Q294.49-3.35 294.15-2.58L294.15-2.58L294.15-2.58Q293.82-1.80 293.24-1.24L293.24-1.24L293.24-1.24Q292.66-0.67 291.90-0.33L291.90-0.33L291.90-0.33Q291.13 0 290.25 0L290.25 0L275.99 0L275.99-4.23ZM314.70 0L314.70-30.81L337.15-30.81L337.15-26.40L319.11-26.40L319.11-17.60L334.51-17.60L334.51-13.19L319.11-13.19L319.11 0L314.70 0ZM342.87-4.23L342.87-22.88L347.08-22.88L347.08-4.23L358.88-4.23L358.88-22.88L363.11-22.88L363.11 0L358.88 0L358.88-3.87L358.88-3.87Q358.81-3.07 358.45-2.36L358.45-2.36L358.45-2.36Q358.08-1.65 357.51-1.13L357.51-1.13L357.51-1.13Q356.94-0.60 356.21-0.30L356.21-0.30L356.21-0.30Q355.48 0 354.66 0L354.66 0L347.08 0L347.08 0Q346.22 0 345.45-0.33L345.45-0.33L345.45-0.33Q344.67-0.67 344.10-1.24L344.10-1.24L344.10-1.24Q343.54-1.80 343.20-2.58L343.20-2.58L343.20-2.58Q342.87-3.35 342.87-4.23L342.87-4.23ZM390.39-18.65L390.39 0L386.16 0L386.16-18.65L374.37-18.65L374.37 0L370.15 0L370.15-22.88L374.37-22.88L374.37-18.84L374.37-18.84Q374.41-19.68 374.75-20.42L374.75-20.42L374.75-20.42Q375.10-21.16 375.67-21.71L375.67-21.71L375.67-21.71Q376.23-22.26 376.99-22.57L376.99-22.57L376.99-22.57Q377.74-22.88 378.60-22.88L378.60-22.88L386.16-22.88L386.16-22.88Q387.04-22.88 387.81-22.55L387.81-22.55L387.81-22.55Q388.59-22.21 389.16-21.65L389.16-21.65L389.16-21.65Q389.73-21.08 390.06-20.30L390.06-20.30L390.06-20.30Q390.39-19.53 390.39-18.65L390.39-18.65ZM397.44-4.23L397.44-18.65L397.44-18.65Q397.44-19.53 397.77-20.30L397.77-20.30L397.77-20.30Q398.11-21.08 398.67-21.65L398.67-21.65L398.67-21.65Q399.24-22.21 400.02-22.55L400.02-22.55L400.02-22.55Q400.79-22.88 401.65-22.88L401.65-22.88L413.45-22.88L413.45-31.69L417.68-31.69L417.68 0L413.45 0L413.45-3.87L413.45-3.87Q413.38-3.07 413.02-2.36L413.02-2.36L413.02-2.36Q412.65-1.65 412.08-1.13L412.08-1.13L412.08-1.13Q411.51-0.60 410.78-0.30L410.78-0.30L410.78-0.30Q410.05 0 409.23 0L409.23 0L401.65 0L401.65 0Q400.79 0 400.02-0.33L400.02-0.33L400.02-0.33Q399.24-0.67 398.67-1.24L398.67-1.24L398.67-1.24Q398.11-1.80 397.77-2.58L397.77-2.58L397.77-2.58Q397.44-3.35 397.44-4.23L397.44-4.23ZM401.65-18.65L401.65-4.23L413.45-4.23L413.45-18.65L401.65-18.65Z" fill="#eae2e2"></path></g></g><style>text {
  font-size: 64px;
  font-family: Arial Black;
  dominant-baseline: central;
  text-anchor: middle;
}</style></svg>